
<svg width="128" height="128" viewBox="0 0 128 128" fill="none" xmlns="http://www.w3.org/2000/svg">
  <path d="M113.5 18L71.25 45.25L78.75 28.5L113.5 18Z" fill="#E17726" stroke="#E17726" stroke-width="0.25" stroke-linecap="round" stroke-linejoin="round"/>
  <path d="M14.5 18L56.5 45.5L49.25 28.5L14.5 18Z" fill="#E27625" stroke="#E27625" stroke-width="0.25" stroke-linecap="round" stroke-linejoin="round"/>
  <path d="M98.75 83.25L88 98.25L110.75 104L117 83.5L98.75 83.25Z" fill="#E27625" stroke="#E27625" stroke-width="0.25" stroke-linecap="round" stroke-linejoin="round"/>
  <path d="M11 83.5L17.25 104L39.75 98.25L29.25 83.25L11 83.5Z" fill="#E27625" stroke="#E27625" stroke-width="0.25" stroke-linecap="round" stroke-linejoin="round"/>
  <path d="M38.75 59.25L32.25 69.75L54.75 70.75L54.25 46.75L38.75 59.25Z" fill="#E27625" stroke="#E27625" stroke-width="0.25" stroke-linecap="round" stroke-linejoin="round"/>
  <path d="M89.25 59.25L73.5 46.5L73.25 70.75L95.75 69.75L89.25 59.25Z" fill="#E27625" stroke="#E27625" stroke-width="0.25" stroke-linecap="round" stroke-linejoin="round"/>
  <path d="M39.75 98.25L53.75 92L41.75 83.75L39.75 98.25Z" fill="#E27625" stroke="#E27625" stroke-width="0.25" stroke-linecap="round" stroke-linejoin="round"/>
  <path d="M74.25 92L88 98.25L86.25 83.75L74.25 92Z" fill="#E27625" stroke="#E27625" stroke-width="0.25" stroke-linecap="round" stroke-linejoin="round"/>
  <path d="M88 98.25L74.25 92L75.25 100.75L75 104L88 98.25Z" fill="#D5BFB2" stroke="#D5BFB2" stroke-width="0.25" stroke-linecap="round" stroke-linejoin="round"/>
  <path d="M39.75 98.25L53 104L52.75 100.75L53.75 92L39.75 98.25Z" fill="#D5BFB2" stroke="#D5BFB2" stroke-width="0.25" stroke-linecap="round" stroke-linejoin="round"/>
  <path d="M53.25 77.25L42 74L50 70.5L53.25 77.25Z" fill="#233447" stroke="#233447" stroke-width="0.25" stroke-linecap="round" stroke-linejoin="round"/>
  <path d="M74.75 77.25L78 70.5L86 74L74.75 77.25Z" fill="#233447" stroke="#233447" stroke-width="0.25" stroke-linecap="round" stroke-linejoin="round"/>
  <path d="M39.75 98.25L42 83.25L29.25 83.5L39.75 98.25Z" fill="#CC6228" stroke="#CC6228" stroke-width="0.25" stroke-linecap="round" stroke-linejoin="round"/>
  <path d="M86 83.25L88.25 98.25L98.75 83.5L86 83.25Z" fill="#CC6228" stroke="#CC6228" stroke-width="0.25" stroke-linecap="round" stroke-linejoin="round"/>
  <path d="M95.75 69.75L73.25 70.75L74.75 77.25L78 70.5L86 74L95.75 69.75Z" fill="#CC6228" stroke="#CC6228" stroke-width="0.25" stroke-linecap="round" stroke-linejoin="round"/>
  <path d="M42 74L50 70.5L53.25 77.25L54.75 70.75L32.25 69.75L42 74Z" fill="#CC6228" stroke="#CC6228" stroke-width="0.25" stroke-linecap="round" stroke-linejoin="round"/>
  <path d="M32.25 69.75L41.75 83.75L42 74L32.25 69.75Z" fill="#E27525" stroke="#E27525" stroke-width="0.25" stroke-linecap="round" stroke-linejoin="round"/>
  <path d="M86 74L86.25 83.75L95.75 69.75L86 74Z" fill="#E27525" stroke="#E27525" stroke-width="0.25" stroke-linecap="round" stroke-linejoin="round"/>
  <path d="M54.75 70.75L53.25 77.25L55.25 89.75L55.5 73.25L54.75 70.75Z" fill="#E27525" stroke="#E27525" stroke-width="0.25" stroke-linecap="round" stroke-linejoin="round"/>
  <path d="M73.25 70.75L72.5 73.25L72.75 89.75L74.75 77.25L73.25 70.75Z" fill="#E27525" stroke="#E27525" stroke-width="0.25" stroke-linecap="round" stroke-linejoin="round"/>
  <path d="M74.75 77.25L72.75 89.75L74.25 92L86.25 83.75L86 74L74.75 77.25Z" fill="#F5841F" stroke="#F5841F" stroke-width="0.25" stroke-linecap="round" stroke-linejoin="round"/>
  <path d="M42 74L41.75 83.75L53.75 92L55.25 89.75L53.25 77.25L42 74Z" fill="#F5841F" stroke="#F5841F" stroke-width="0.25" stroke-linecap="round" stroke-linejoin="round"/>
  <path d="M75 104L75.25 100.75L74.5 100L53.5 100L52.75 100.75L53 104L39.75 98.25L44 101.75L53.25 108H74.75L84 101.75L88.25 98.25L75 104Z" fill="#C0AC9D" stroke="#C0AC9D" stroke-width="0.25" stroke-linecap="round" stroke-linejoin="round"/>
  <path d="M74.25 92L72.75 89.75H55.25L53.75 92L52.75 100.75L53.5 100H74.5L75.25 100.75L74.25 92Z" fill="#161616" stroke="#161616" stroke-width="0.25" stroke-linecap="round" stroke-linejoin="round"/>
  <path d="M115.25 51.25L119 34.75L113.5 18L74.25 44.5L89.25 59.25L110 65L114.75 59.75L112.75 58.25L116 55.25L113.5 53.25L116.75 50.75L115.25 51.25Z" fill="#763E1A" stroke="#763E1A" stroke-width="0.25" stroke-linecap="round" stroke-linejoin="round"/>
  <path d="M9 34.75L12.75 51.25L11.25 50.75L14.5 53.25L12 55.25L15.25 58.25L13.25 59.75L18 65L38.75 59.25L53.75 44.5L14.5 18L9 34.75Z" fill="#763E1A" stroke="#763E1A" stroke-width="0.25" stroke-linecap="round" stroke-linejoin="round"/>
  <path d="M110 65L89.25 59.25L95.75 69.75L86.25 83.75L98.75 83.5H117L110 65Z" fill="#F5841F" stroke="#F5841F" stroke-width="0.25" stroke-linecap="round" stroke-linejoin="round"/>
  <path d="M38.75 59.25L18 65L11 83.5H29.25L41.75 83.75L32.25 69.75L38.75 59.25Z" fill="#F5841F" stroke="#F5841F" stroke-width="0.25" stroke-linecap="round" stroke-linejoin="round"/>
  <path d="M73.25 70.75L74.25 44.5L78.75 28.5H49.25L53.75 44.5L54.75 70.75L55.25 73.25L55.25 89.75H72.75L72.75 73.25L73.25 70.75Z" fill="#F5841F" stroke="#F5841F" stroke-width="0.25" stroke-linecap="round" stroke-linejoin="round"/>
</svg>
