
<svg width="128" height="128" viewBox="0 0 128 128" fill="none" xmlns="http://www.w3.org/2000/svg">
  <rect width="128" height="128" rx="64" fill="#3B99FC"/>
  <path d="M43.0199 48.8664C55.1686 37.1567 74.8314 37.1567 86.9801 48.8664L88.5408 50.3666C89.3202 51.1183 89.3202 52.3548 88.5408 53.1066L83.3264 58.1422C82.9367 58.5181 82.3085 58.5181 81.9188 58.1422L79.6372 55.943C71.1286 47.7292 58.8714 47.7292 50.3628 55.943L47.8418 58.3816C47.4521 58.7575 46.8238 58.7575 46.4342 58.3816L41.2198 53.3461C40.4403 52.5943 40.4403 51.3578 41.2198 50.606L43.0199 48.8664ZM99.1274 60.6316L103.822 65.1875C104.602 65.9393 104.602 67.1758 103.822 67.9275L83.4442 87.6794C82.6647 88.4311 81.4084 88.4311 80.6289 87.6794L66.497 74.0061C66.3022 73.8181 65.9778 73.8181 65.783 74.0061L51.6511 87.6794C50.8716 88.4311 49.6153 88.4311 48.8358 87.6794L28.4582 67.9275C27.6787 67.1758 27.6787 65.9393 28.4582 65.1875L33.1528 60.6316C33.9323 59.8798 35.1886 59.8798 35.9681 60.6316L50.1 74.3049C50.2948 74.4929 50.6192 74.4929 50.814 74.3049L64.9459 60.6316C65.7254 59.8798 66.9817 59.8798 67.7612 60.6316L81.893 74.3049C82.0879 74.4929 82.4122 74.4929 82.607 74.3049L96.7389 60.6316C97.5184 59.8798 98.7747 59.8798 99.5542 60.6316H99.1274Z" fill="white"/>
</svg>
